<svg width="18" height="20" viewBox="0 0 18 20" fill="none" xmlns="http://www.w3.org/2000/svg">
<path d="M7.9964 1.11561C8.5731 0.62813 9.4261 0.62813 10.0029 1.11561C10.184 1.26868 10.3679 1.42299 10.5535 1.57875C12.752 3.42341 15.1941 5.47255 16.1164 8.0885C16.6659 9.647 16.4379 11.4566 15.2372 12.6562C13.7139 14.1783 11.2664 14.1277 9.6443 11.8928C9.6312 11.8747 9.6004 11.8907 9.6091 11.9113L12.4794 18.7343C12.584 18.9784 12.4049 19.25 12.1393 19.25H5.86151C5.59588 19.25 5.41679 18.9784 5.52143 18.7343L8.3908 11.9104C8.3994 11.8898 8.3687 11.8738 8.3556 11.8919C6.73352 14.1277 4.28553 14.1785 2.76199 12.6562C1.5613 11.4566 1.33328 9.647 1.8828 8.0885C2.80512 5.47255 5.24726 3.42341 7.4457 1.57875C7.6313 1.42299 7.8152 1.26868 7.9964 1.11561Z" stroke="#830000" stroke-width="1.5" stroke-linecap="round"/>
</svg>
