<svg width="1267" height="411" viewBox="0 0 1267 411" fill="none" xmlns="http://www.w3.org/2000/svg">
<path d="M599.358 212.127C638.211 224.284 664.083 258.111 688.852 293.57C736.623 361.965 824.873 362.773 905.913 334.398C915.682 330.978 925.544 326.603 935.378 322.181C940.181 320.018 945.018 316.702 951.006 313.239C928.518 315.515 907.299 318.862 886.761 319.453C857.491 320.292 835.113 310.975 807.355 299.291C804.842 297.95 787.496 286.656 787.496 286.656C766.587 267.68 746.437 247.367 724.692 229.89C693.627 204.932 655.538 199.642 616.289 213.306L599.358 212.127Z" fill="#7E090A"/>
<path d="M1218.24 344.899C1192.05 353.032 1163.52 356.866 1132.64 355.612C1075.43 353.281 1027.38 335.065 981.276 314.216C947.527 298.944 914.854 282.714 881.232 267.32C805.18 232.504 720.88 217.429 631.201 216.128C600.75 215.686 570.383 215.967 538.323 213.912C558.533 209.039 578.115 203.111 599.055 199.485C680.322 185.417 762.56 186.279 845.138 210.051C892.811 223.769 934.613 243.359 974.622 264.654C1004.13 280.358 1033.24 296.414 1063.79 311.269C1107.73 332.628 1157.01 342.7 1210.56 341.467C1212.63 341.418 1214.79 341.812 1216.9 341.999C1217.34 342.967 1217.78 343.936 1218.22 344.905L1218.24 344.899Z" fill="#7E090A"/>
<path d="M1160.94 257.936C1182.04 249.705 1223.11 255.348 1240.18 267.659C1259.79 281.822 1264.36 302.865 1249.25 318.454C1233.34 334.888 1206.62 337.85 1178.05 334.282C1156.05 331.53 1131.87 327.307 1113.79 319.151C1052.73 291.615 993.973 262.03 934.329 233.222C853.592 195.412 933.229 228.568 938.25 229.294C951.855 234.065 965.887 238.387 978.974 243.684C1022.71 261.387 1065.88 279.675 1109.73 297.262C1136.13 307.851 1164.17 315.888 1195.42 315.453C1215.76 315.168 1225.48 310.209 1229.14 298.997C1233.66 285.127 1227.18 274.176 1209.49 267.604C1202.57 265.039 1194.72 263.34 1187.07 261.811C1179.52 260.297 1171.7 259.499 1160.95 257.945L1160.94 257.936Z" fill="#7E090A"/>
<path d="M440.44 325.347C439.536 325.347 438.859 325.009 438.407 324.331C437.955 323.653 437.898 322.918 438.237 322.128C443.095 310.378 447.84 299.475 452.472 289.42C457.105 279.252 459.759 273.434 460.437 271.965L462.641 267.22C462.866 266.429 462.866 265.695 462.641 265.017C460.607 261.063 457.161 253.663 452.303 242.817C447.445 231.971 442.756 221.068 438.237 210.109C438.124 209.883 438.068 209.544 438.068 209.093C438.068 208.415 438.294 207.85 438.746 207.398C439.198 206.946 439.762 206.72 440.44 206.72H476.876C477.78 206.72 478.514 207.228 479.079 208.245L495.178 244.85C495.517 245.754 496.308 246.206 497.551 246.206H509.414C510.543 246.206 511.278 245.754 511.617 244.85C516.588 232.875 521.954 220.673 527.716 208.245C528.168 207.228 528.903 206.72 529.919 206.72H566.694C567.485 206.72 568.106 207.115 568.558 207.906C569.01 208.584 569.123 209.318 568.897 210.109L544.493 265.017C544.268 265.808 544.268 266.486 544.493 267.051L568.897 321.958C569.01 322.184 569.066 322.467 569.066 322.805C569.066 323.483 568.84 324.105 568.388 324.67C567.936 325.122 567.372 325.347 566.694 325.347H529.919C528.79 325.347 528.055 324.896 527.716 323.992L525.683 319.586C520.26 307.497 515.571 296.82 511.617 287.556C511.278 286.652 510.543 286.2 509.414 286.2H497.551C496.308 286.2 495.517 286.652 495.178 287.556L479.079 323.992C478.514 324.896 477.78 325.347 476.876 325.347H440.44Z" fill="#7E090A"/>
<path d="M290.272 285.861C290.837 285.861 291.345 286.087 291.797 286.539C292.249 286.991 292.475 287.556 292.475 288.234V344.836C292.475 345.514 292.249 346.079 291.797 346.531C291.345 347.096 290.837 347.378 290.272 347.378H255.531C254.853 347.378 254.232 347.096 253.667 346.531C253.215 346.079 252.989 345.514 252.989 344.836V327.72C252.989 327.042 252.763 326.477 252.311 326.025C251.859 325.573 251.294 325.347 250.616 325.347H184.354C183.677 325.347 183.055 325.573 182.49 326.025C182.038 326.477 181.813 327.042 181.813 327.72V344.667C181.813 345.345 181.53 345.91 180.965 346.361C180.513 346.926 179.948 347.209 179.27 347.209H144.868C144.191 347.209 143.569 346.926 143.004 346.361C142.552 345.91 142.326 345.345 142.326 344.667V288.403C142.326 287.726 142.609 287.161 143.174 286.709C143.739 286.144 144.417 285.861 145.207 285.861H156.392C157.522 285.861 158.313 285.24 158.765 283.997L171.644 209.262C171.757 208.584 172.04 208.019 172.492 207.567C173.057 207.002 173.678 206.72 174.356 206.72H274.003C274.794 206.72 275.415 207.002 275.867 207.567C276.432 208.019 276.714 208.528 276.714 209.093V283.489C276.714 284.054 276.941 284.619 277.392 285.184C277.844 285.636 278.409 285.861 279.087 285.861H290.272ZM207.741 241.969C206.611 241.969 205.82 242.591 205.369 243.833L199.946 271.457C198.816 276.654 198.025 280.495 197.573 282.981V283.489C197.573 284.167 197.799 284.732 198.251 285.184C198.703 285.636 199.268 285.861 199.946 285.861H235.195C235.873 285.861 236.381 285.636 236.72 285.184C237.172 284.732 237.398 284.167 237.398 283.489V244.511C237.398 243.833 237.172 243.269 236.72 242.817C236.381 242.252 235.873 241.969 235.195 241.969H207.741Z" fill="white"/>
<path d="M105.917 325.347H3.2199C2.31607 325.347 1.52523 325.065 0.847359 324.5C0.282466 323.822 0 323.031 0 322.128V209.94C0 209.036 0.282466 208.302 0.847359 207.737C1.52523 207.059 2.31607 206.72 3.2199 206.72H102.189C109.081 206.72 115.464 208.471 121.339 211.973C127.327 215.363 132.016 219.995 135.405 225.87C138.907 231.632 140.658 237.959 140.658 244.85C140.658 251.629 138.964 257.956 135.574 263.831C141.11 270.835 143.878 278.744 143.878 287.556C143.878 294.448 142.184 300.775 138.794 306.537C135.405 312.298 130.773 316.874 124.898 320.263C119.136 323.653 112.809 325.347 105.917 325.347ZM43.3839 249.765H89.4792C93.0945 249.765 94.9021 248.466 94.9021 245.867C94.9021 243.269 93.0945 241.969 89.4792 241.969H43.3839C42.48 241.969 41.6892 242.308 41.0113 242.986C40.4464 243.551 40.164 244.285 40.164 245.189V246.545C40.164 247.449 40.4464 248.24 41.0113 248.917C41.6892 249.482 42.48 249.765 43.3839 249.765ZM43.3839 290.607H89.4792C93.0945 290.607 94.9021 289.307 94.9021 286.709C94.9021 284.11 93.0945 282.811 89.4792 282.811H43.3839C42.48 282.811 41.6892 283.15 41.0113 283.828C40.4464 284.393 40.164 285.127 40.164 286.031V287.387C40.164 288.291 40.4464 289.081 41.0113 289.759C41.6892 290.324 42.48 290.607 43.3839 290.607Z" fill="white"/>
<path d="M1243.93 34.1281H1155.07C1154.5 34.1281 1154.05 33.9017 1153.71 33.449C1153.37 32.883 1153.2 32.2038 1153.2 31.4115V2.71666C1153.2 2.0375 1153.37 1.41493 1153.71 0.848957C1154.16 0.282986 1154.61 0 1155.07 0H1243.93C1244.39 0 1244.78 0.282986 1245.12 0.848957C1245.57 1.41493 1245.8 2.0375 1245.8 2.71666V31.4115C1245.8 32.2038 1245.63 32.883 1245.29 33.449C1244.95 33.9017 1244.5 34.1281 1243.93 34.1281ZM1173.55 121.91L1193.9 45.8437C1194.24 44.7118 1194.98 44.1458 1196.11 44.1458H1264.63C1265.3 44.1458 1265.87 44.4288 1266.32 44.9948C1266.77 45.4476 1267 45.9569 1267 46.5229V160.453C1267 161.132 1266.72 161.755 1266.15 162.321C1265.7 162.774 1265.13 163 1264.46 163H1229.35C1228.56 163 1227.94 162.774 1227.48 162.321C1227.03 161.755 1226.81 161.132 1226.81 160.453V85.0656C1226.81 84.6128 1226.52 84.3864 1225.96 84.3864C1225.51 84.2733 1225.22 84.443 1225.11 84.8958L1204.76 161.132C1204.42 162.264 1203.63 162.83 1202.38 162.83L1134.37 163C1133.81 163 1133.24 162.774 1132.68 162.321C1132.23 161.868 1132 161.302 1132 160.623V46.8625C1132 46.0701 1132.23 45.4476 1132.68 44.9948C1133.24 44.4288 1133.87 44.1458 1134.54 44.1458H1169.65C1170.33 44.1458 1170.89 44.4288 1171.35 44.9948C1171.91 45.4476 1172.19 46.0701 1172.19 46.8625V121.741C1172.19 122.08 1172.36 122.307 1172.7 122.42C1173.16 122.42 1173.44 122.25 1173.55 121.91Z" fill="white"/>
<path d="M1030.55 121.86L1050.9 45.7C1051.24 44.5667 1051.98 44 1053.11 44H1121.63C1122.3 44 1122.87 44.2833 1123.32 44.85C1123.77 45.3033 1124 45.8133 1124 46.38V160.45C1124 161.13 1123.72 161.753 1123.15 162.32C1122.7 162.773 1122.13 163 1121.46 163H1086.35C1085.56 163 1084.94 162.773 1084.48 162.32C1084.03 161.753 1083.81 161.13 1083.81 160.45V84.97C1083.81 84.5167 1083.52 84.29 1082.96 84.29C1082.51 84.1767 1082.22 84.3467 1082.11 84.8L1061.76 161.13C1061.42 162.263 1060.63 162.83 1059.38 162.83L991.374 163C990.809 163 990.244 162.773 989.678 162.32C989.226 161.867 989 161.3 989 160.62V46.72C989 45.9267 989.226 45.3033 989.678 44.85C990.244 44.2833 990.866 44 991.544 44H1026.65C1027.33 44 1027.89 44.2833 1028.35 44.85C1028.91 45.3033 1029.19 45.9267 1029.19 46.72V121.69C1029.19 122.03 1029.36 122.257 1029.7 122.37C1030.16 122.37 1030.44 122.2 1030.55 121.86Z" fill="white"/>
<path d="M939.892 46.38C939.892 45.7 940.118 45.1333 940.569 44.68C941.133 44.2267 941.697 44 942.261 44H977.631C978.308 44 978.872 44.2267 979.323 44.68C979.774 45.1333 980 45.7 980 46.38V160.45C980 161.13 979.774 161.753 979.323 162.32C978.872 162.773 978.251 163 977.461 163H942.431C941.754 163 941.133 162.773 940.569 162.32C940.118 161.753 939.892 161.13 939.892 160.45V125.94C939.892 125.373 939.667 124.863 939.215 124.41C938.764 123.843 938.2 123.56 937.523 123.56H890.477C889.913 123.56 889.349 123.843 888.785 124.41C888.333 124.863 888.108 125.373 888.108 125.94V160.45C888.108 161.13 887.882 161.753 887.431 162.32C886.979 162.773 886.359 163 885.569 163H850.538C849.862 163 849.241 162.773 848.677 162.32C848.226 161.753 848 161.13 848 160.45V46.38C848 45.7 848.226 45.1333 848.677 44.68C849.241 44.2267 849.805 44 850.369 44H885.908C886.472 44 886.979 44.2267 887.431 44.68C887.882 45.1333 888.108 45.7 888.108 46.38V80.89C888.108 81.57 888.333 82.1367 888.785 82.59C889.349 83.0433 889.913 83.27 890.477 83.27H937.523C938.2 83.27 938.764 83.0433 939.215 82.59C939.667 82.1367 939.892 81.57 939.892 80.89V46.38Z" fill="white"/>
<path d="M837.799 123.334C838.363 123.334 838.871 123.56 839.323 124.013C839.774 124.466 840 125.033 840 125.712V182.452C840 183.131 839.774 183.698 839.323 184.151C838.871 184.717 838.363 185 837.799 185H803.092C802.415 185 801.795 184.717 801.23 184.151C800.779 183.698 800.553 183.131 800.553 182.452V165.294C800.553 164.614 800.327 164.048 799.876 163.595C799.424 163.142 798.86 162.916 798.183 162.916H731.986C731.309 162.916 730.688 163.142 730.124 163.595C729.673 164.048 729.447 164.614 729.447 165.294V182.282C729.447 182.961 729.165 183.528 728.6 183.981C728.149 184.547 727.585 184.83 726.907 184.83H692.539C691.862 184.83 691.241 184.547 690.677 183.981C690.226 183.528 690 182.961 690 182.282V125.882C690 125.202 690.282 124.636 690.847 124.183C691.411 123.617 692.088 123.334 692.878 123.334H704.052C705.181 123.334 705.971 122.711 706.422 121.465L719.289 46.5482C719.402 45.8687 719.684 45.3024 720.135 44.8494C720.7 44.2831 721.321 44 721.998 44H821.546C822.336 44 822.957 44.2831 823.409 44.8494C823.973 45.3024 824.255 45.812 824.255 46.3783V120.955C824.255 121.522 824.481 122.088 824.932 122.654C825.384 123.107 825.948 123.334 826.625 123.334H837.799ZM755.35 79.3349C754.221 79.3349 753.431 79.9578 752.98 81.2036L747.562 108.894C746.433 114.104 745.643 117.954 745.192 120.446V120.955C745.192 121.635 745.418 122.201 745.869 122.654C746.321 123.107 746.885 123.334 747.562 123.334H782.776C783.454 123.334 783.962 123.107 784.3 122.654C784.752 122.201 784.977 121.635 784.977 120.955V81.8831C784.977 81.2036 784.752 80.6374 784.3 80.1843C783.962 79.6181 783.454 79.3349 782.776 79.3349H755.35Z" fill="white"/>
<path d="M598.277 79.53C597.379 79.53 596.929 79.9267 596.929 80.72V87.69C596.929 88.4833 597.379 88.88 598.277 88.88H677.799C678.697 88.88 679.428 89.22 679.989 89.9C680.663 90.4667 681 91.2033 681 92.11V115.4C681 116.307 680.663 117.1 679.989 117.78C679.428 118.347 678.697 118.63 677.799 118.63H598.277C597.379 118.63 596.929 119.027 596.929 119.82V127.13C596.929 127.923 597.379 128.32 598.277 128.32H677.799C678.697 128.32 679.428 128.66 679.989 129.34C680.663 129.907 681 130.643 681 131.55V159.77C681 160.677 680.663 161.47 679.989 162.15C679.428 162.717 678.697 163 677.799 163H560.201C559.303 163 558.516 162.717 557.842 162.15C557.281 161.47 557 160.677 557 159.77V47.23C557 46.3233 557.281 45.5867 557.842 45.02C558.516 44.34 559.303 44 560.201 44H677.799C678.697 44 679.428 44.34 679.989 45.02C680.663 45.5867 681 46.3233 681 47.23V76.3C681 77.2067 680.663 78 679.989 78.68C679.428 79.2467 678.697 79.53 677.799 79.53H598.277Z" fill="white"/>
<path d="M545.29 44C546.081 44 546.702 44.2267 547.153 44.68C547.718 45.1333 548 45.7 548 46.38V160.62C548 161.3 547.718 161.867 547.153 162.32C546.702 162.773 546.081 163 545.29 163H511.756C510.966 163 510.288 162.773 509.724 162.32C509.159 161.753 508.877 161.187 508.877 160.62V81.74C508.877 81.1733 508.651 80.6633 508.199 80.21C507.748 79.6433 507.183 79.36 506.506 79.36H479.915C478.786 79.36 477.996 80.04 477.544 81.4L467.552 136.99C465.632 144.583 461.68 150.817 455.696 155.69C449.825 160.563 443.05 163 435.372 163H414.371C413.807 163 413.242 162.773 412.677 162.32C412.226 161.867 412 161.3 412 160.62V126.45C412 125.883 412.226 125.373 412.677 124.92C413.242 124.353 413.807 124.07 414.371 124.07H430.291L443.841 46.38C443.954 45.7 444.236 45.1333 444.687 44.68C445.252 44.2267 445.873 44 446.55 44H545.29Z" fill="white"/>
<path d="M321.273 163C315.275 163 309.729 161.47 304.637 158.41C299.544 155.237 295.469 151.043 292.414 145.83C289.471 140.503 288 134.723 288 128.49V78.51C288 72.2767 289.471 66.5533 292.414 61.34C295.469 56.0133 299.544 51.82 304.637 48.76C309.729 45.5867 315.275 44 321.273 44H412.775C413.68 44 414.416 44.34 414.981 45.02C415.66 45.5867 416 46.3233 416 47.23V78C416 78.9067 415.66 79.7 414.981 80.38C414.416 80.9467 413.68 81.23 412.775 81.23H331.459C330.553 81.23 329.761 81.57 329.082 82.25C328.516 82.8167 328.233 83.5533 328.233 84.46V121.69C328.233 122.597 328.516 123.39 329.082 124.07C329.761 124.637 330.553 124.92 331.459 124.92H412.775C413.68 124.92 414.416 125.26 414.981 125.94C415.66 126.507 416 127.243 416 128.15V159.77C416 160.677 415.66 161.47 414.981 162.15C414.416 162.717 413.68 163 412.775 163H321.273Z" fill="white"/>
<path d="M173.265 163C167.268 163 161.724 161.47 156.632 158.41C151.541 155.237 147.468 151.043 144.413 145.83C141.471 140.503 140 134.723 140 128.49V78.68C140 72.3333 141.471 66.5533 144.413 61.34C147.468 56.0133 151.541 51.82 156.632 48.76C161.724 45.5867 167.268 44 173.265 44H245.735C251.845 44 257.446 45.5867 262.537 48.76C267.629 51.82 271.646 56.0133 274.587 61.34C277.529 66.5533 279 72.3333 279 78.68V128.49C279 134.723 277.529 140.503 274.587 145.83C271.646 151.043 267.629 155.237 262.537 158.41C257.446 161.47 251.845 163 245.735 163H173.265ZM233.176 123.05C234.76 123.05 236.118 122.483 237.249 121.35C238.381 120.103 238.946 118.573 238.946 116.76V89.73C238.946 87.9167 238.381 86.3867 237.249 85.14C236.118 83.8933 234.76 83.27 233.176 83.27H186.164C184.58 83.27 183.165 83.8933 181.921 85.14C180.789 86.3867 180.223 87.9167 180.223 89.73V116.76C180.223 118.573 180.789 120.103 181.921 121.35C183.165 122.483 184.58 123.05 186.164 123.05H233.176Z" fill="white"/>
<path d="M129.462 44C130.251 44 130.872 44.2267 131.323 44.68C131.774 45.1333 132 45.7 132 46.38V160.45C132 161.13 131.718 161.753 131.154 162.32C130.703 162.773 130.082 163 129.292 163H94.4308C93.7538 163 93.1333 162.773 92.5692 162.32C92.1179 161.753 91.8923 161.13 91.8923 160.45V84.63C91.8923 83.95 91.6667 83.3833 91.2154 82.93C90.7641 82.4767 90.2 82.25 89.5231 82.25H42.4769C41.9128 82.25 41.3487 82.4767 40.7846 82.93C40.3333 83.3833 40.1077 83.95 40.1077 84.63V160.45C40.1077 161.13 39.882 161.753 39.4308 162.32C38.9795 162.773 38.4154 163 37.7385 163H2.53846C1.86154 163 1.24103 162.773 0.676923 162.32C0.225641 161.753 0 161.13 0 160.45V46.38C0 45.7 0.225641 45.1333 0.676923 44.68C1.1282 44.2267 1.69231 44 2.36923 44H129.462Z" fill="white"/>
<path d="M396.354 206.22C402.544 206.22 408.227 207.825 413.39 211.036L413.87 211.33C418.803 214.399 422.714 218.545 425.6 223.76L425.875 224.256C428.674 229.402 430.07 235.084 430.07 241.291V290.946C430.07 297.242 428.581 303.087 425.602 308.473L425.6 308.477C422.621 313.747 418.551 317.989 413.396 321.197L413.39 321.2C408.226 324.299 402.543 325.848 396.354 325.848H323.992C317.915 325.848 312.29 324.298 307.127 321.2L307.12 321.197C301.967 317.99 297.842 313.751 294.751 308.485L294.745 308.473C291.766 303.087 290.276 297.242 290.276 290.946V241.291C290.276 234.884 291.765 229.036 294.747 223.76L294.749 223.757L295.042 223.255C298.099 218.111 302.129 214.035 307.127 211.036C312.288 207.826 317.914 206.22 323.992 206.22H396.354ZM336.872 246.367C335.442 246.367 334.154 246.921 332.996 248.076C331.962 249.218 331.44 250.618 331.44 252.307V279.252C331.44 280.937 331.96 282.334 332.989 283.474C334.142 284.515 335.43 285.023 336.872 285.023H383.814C385.259 285.023 386.484 284.513 387.52 283.481C388.553 282.339 389.076 280.941 389.076 279.252V252.307C389.076 250.719 388.614 249.388 387.7 248.285L387.512 248.068C386.47 246.922 385.246 246.367 383.814 246.367H336.872Z" fill="url(#paint0_linear_5_5)" stroke="#7E090A"/>
<defs>
<linearGradient id="paint0_linear_5_5" x1="291" y1="265.72" x2="430" y2="265.72" gradientUnits="userSpaceOnUse">
<stop offset="0.278846" stop-color="white"/>
<stop offset="1" stop-color="#7E090A"/>
</linearGradient>
</defs>
</svg>
